<svg xmlns="http://www.w3.org/2000/svg" xmlns:xlink="http://www.w3.org/1999/xlink" version="1.1" width="100" height="100" viewBox="0 0 1000 1000" xml:space="preserve">
<desc>Created with Fabric.js 3.5.0</desc>
<defs>
</defs>
<rect x="0" y="0" width="100%" height="100%" fill="#000000"/>
<g transform="matrix(0 0.0781 0.0781 0 500.16 499.84)" id="774760">
<path style="stroke: none; stroke-width: 1; stroke-dasharray: none; stroke-linecap: butt; stroke-dashoffset: 0; stroke-linejoin: miter; stroke-miterlimit: 4; is-custom-font: none; font-file-url: none; fill: #35475F; fill-rule: nonzero; opacity: 1;" vector-effect="non-scaling-stroke" transform=" translate(-6400, -6400)" d="M 0 12440 l 0 -360 l 4385 0 l 4385 0 l 0 -615 l 0 -615 l -2362 0 l -2363 0 l 360 -360 l 360 -360 l 2002 0 l 2003 0 l 0 -320 l 0 -320 l -967 0 l -968 0 l 360 -360 l 360 -360 l 607 0 l 608 0 l 0 -608 l 0 -607 l 360 -360 l 360 -360 l 0 968 l 0 967 l 320 0 l 320 0 l 0 -2003 l 0 -2002 l 360 -360 l 360 -360 l 0 2363 l 0 2362 l 615 0 l 615 0 l 0 -4385 l 0 -4385 l 360 0 l 360 0 l 0 4745 l 0 4745 l -975 0 l -975 0 l 0 320 l 0 320 l 975 0 l 975 0 l 0 1335 l 0 1335 l -1335 0 l -1335 0 l 0 -975 l 0 -975 l -320 0 l -320 0 l 0 975 l 0 975 l -4745 0 l -4745 0 l 0 -360 z m 12080 -975 l 0 -615 l -615 0 l -615 0 l 0 615 l 0 615 l 615 0 l 615 0 l 0 -615 z m -1950 -1655 l 0 -320 l -320 0 l -320 0 l 0 320 l 0 320 l 320 0 l 320 0 l 0 -320 z" stroke-linecap="round"/>
</g>rgb(0,0,0)
</svg>